<svg aria-hidden="true" style="position: absolute; width: 0; height: 0; overflow: hidden;" version="1.1" xmlns="http://www.w3.org/2000/svg" xmlns:xlink="http://www.w3.org/1999/xlink">
<defs>
<symbol id="icon--06" viewBox="0 0 116 32">
<path fill="#ff6b09" style="fill: var(--color1, #ff6b09)" d="M0 15.651h40.727v3.951h-40.727v-3.951zM72.584 29.58c-2.362 0-4.466-0.584-6.313-1.751s-3.299-2.851-4.358-5.050c-1.032-2.226-1.548-4.874-1.548-7.942s0.516-5.702 1.548-7.901c1.059-2.226 2.512-3.923 4.358-5.091s3.951-1.751 6.313-1.751 4.467 0.584 6.313 1.751c1.846 1.167 3.286 2.865 4.317 5.091 1.059 2.199 1.588 4.833 1.588 7.901s-0.529 5.715-1.588 7.942c-1.032 2.199-2.471 3.883-4.317 5.050s-3.951 1.751-6.313 1.751zM72.584 24c1.738 0 3.095-0.747 4.073-2.24 1.005-1.493 1.507-3.801 1.507-6.924s-0.502-5.43-1.507-6.924c-0.977-1.493-2.335-2.24-4.073-2.24-1.711 0-3.068 0.747-4.073 2.24-0.977 1.493-1.466 3.801-1.466 6.924s0.489 5.43 1.466 6.924c1.005 1.493 2.362 2.24 4.073 2.24zM104.991 11.212c1.819 0 3.475 0.367 4.969 1.1s2.674 1.778 3.543 3.136c0.869 1.33 1.303 2.878 1.303 4.643 0 1.901-0.475 3.57-1.425 5.009s-2.254 2.552-3.91 3.34c-1.629 0.76-3.448 1.14-5.457 1.14-3.991 0-7.114-1.222-9.367-3.665s-3.38-5.933-3.38-10.467c0-3.231 0.611-6.001 1.833-8.308s2.919-4.059 5.091-5.254c2.199-1.195 4.738-1.792 7.616-1.792 1.521 0 2.973 0.176 4.358 0.529 1.412 0.326 2.607 0.801 3.584 1.425l-2.444 4.847c-1.412-0.95-3.19-1.425-5.335-1.425-2.417 0-4.331 0.706-5.743 2.118s-2.172 3.462-2.281 6.15c1.683-1.683 4.032-2.525 7.046-2.525zM103.647 24.652c1.412 0 2.552-0.38 3.421-1.14 0.896-0.76 1.344-1.792 1.344-3.095s-0.448-2.335-1.344-3.095c-0.869-0.787-2.036-1.181-3.503-1.181-1.439 0-2.62 0.407-3.543 1.222-0.923 0.787-1.385 1.806-1.385 3.055s0.448 2.267 1.344 3.055c0.896 0.787 2.118 1.181 3.665 1.181z"></path>
</symbol>
<symbol id="icon--01" viewBox="0 0 105 32">
<path fill="#ff6b09" style="fill: var(--color1, #ff6b09)" d="M0 15.651h40.727v3.951h-40.727v-3.951zM72.584 29.58c-2.362 0-4.466-0.584-6.313-1.751s-3.299-2.851-4.358-5.050c-1.032-2.226-1.548-4.874-1.548-7.942s0.516-5.702 1.548-7.901c1.059-2.226 2.512-3.923 4.358-5.091s3.951-1.751 6.313-1.751 4.467 0.584 6.313 1.751c1.846 1.167 3.286 2.865 4.317 5.091 1.059 2.199 1.588 4.833 1.588 7.901s-0.529 5.715-1.588 7.942c-1.032 2.199-2.471 3.883-4.317 5.050s-3.951 1.751-6.313 1.751zM72.584 24c1.738 0 3.095-0.747 4.073-2.24 1.005-1.493 1.507-3.801 1.507-6.924s-0.502-5.43-1.507-6.924c-0.977-1.493-2.335-2.24-4.073-2.24-1.711 0-3.068 0.747-4.073 2.24-0.977 1.493-1.466 3.801-1.466 6.924s0.489 5.43 1.466 6.924c1.005 1.493 2.362 2.24 4.073 2.24zM102.024 0.582v28.509h-6.598v-23.215h-5.702v-5.295h12.3z"></path>
</symbol>
<symbol id="icon--02" viewBox="0 0 113 32">
<path fill="#ff6b09" style="fill: var(--color1, #ff6b09)" d="M0 15.651h40.727v3.951h-40.727v-3.951zM72.584 29.58c-2.362 0-4.466-0.584-6.313-1.751s-3.299-2.851-4.358-5.050c-1.032-2.226-1.548-4.874-1.548-7.942s0.516-5.702 1.548-7.901c1.059-2.226 2.512-3.923 4.358-5.091s3.951-1.751 6.313-1.751 4.467 0.584 6.313 1.751c1.846 1.167 3.286 2.865 4.317 5.091 1.059 2.199 1.588 4.833 1.588 7.901s-0.529 5.715-1.588 7.942c-1.032 2.199-2.471 3.883-4.317 5.050s-3.951 1.751-6.313 1.751zM72.584 24c1.738 0 3.095-0.747 4.073-2.24 1.005-1.493 1.507-3.801 1.507-6.924s-0.502-5.43-1.507-6.924c-0.977-1.493-2.335-2.24-4.073-2.24-1.711 0-3.068 0.747-4.073 2.24-0.977 1.493-1.466 3.801-1.466 6.924s0.489 5.43 1.466 6.924c1.005 1.493 2.362 2.24 4.073 2.24zM112.328 23.715v5.376h-21.545v-4.276l10.996-10.385c1.167-1.113 1.955-2.063 2.362-2.851 0.407-0.815 0.611-1.616 0.611-2.403 0-1.14-0.394-2.009-1.181-2.607-0.76-0.625-1.887-0.937-3.38-0.937-1.249 0-2.376 0.244-3.38 0.733-1.005 0.462-1.846 1.167-2.525 2.118l-4.806-3.095c1.113-1.656 2.647-2.946 4.602-3.869 1.955-0.95 4.195-1.425 6.72-1.425 2.118 0 3.964 0.353 5.539 1.059 1.602 0.679 2.837 1.656 3.706 2.932 0.896 1.249 1.344 2.729 1.344 4.439 0 1.548-0.326 3-0.977 4.358s-1.914 2.905-3.788 4.643l-6.557 6.191h12.259z"></path>
</symbol>
<symbol id="icon--03" viewBox="0 0 113 32">
<path fill="#ff6b09" style="fill: var(--color1, #ff6b09)" d="M0 15.651h40.727v3.951h-40.727v-3.951zM72.584 29.58c-2.362 0-4.466-0.584-6.313-1.751s-3.299-2.851-4.358-5.050c-1.032-2.226-1.548-4.874-1.548-7.942s0.516-5.702 1.548-7.901c1.059-2.226 2.512-3.923 4.358-5.091s3.951-1.751 6.313-1.751 4.467 0.584 6.313 1.751c1.846 1.167 3.286 2.865 4.317 5.091 1.059 2.199 1.588 4.833 1.588 7.901s-0.529 5.715-1.588 7.942c-1.032 2.199-2.471 3.883-4.317 5.050s-3.951 1.751-6.313 1.751zM72.584 24c1.738 0 3.095-0.747 4.073-2.24 1.005-1.493 1.507-3.801 1.507-6.924s-0.502-5.43-1.507-6.924c-0.977-1.493-2.335-2.24-4.073-2.24-1.711 0-3.068 0.747-4.073 2.24-0.977 1.493-1.466 3.801-1.466 6.924s0.489 5.43 1.466 6.924c1.005 1.493 2.362 2.24 4.073 2.24zM104.186 12.189c2.498 0.407 4.412 1.344 5.743 2.81 1.33 1.439 1.996 3.231 1.996 5.376 0 1.656-0.435 3.19-1.303 4.602-0.869 1.385-2.199 2.498-3.991 3.34-1.765 0.842-3.937 1.263-6.516 1.263-2.009 0-3.991-0.258-5.946-0.774-1.928-0.543-3.571-1.303-4.928-2.281l2.566-5.050c1.086 0.815 2.335 1.453 3.747 1.914 1.439 0.434 2.905 0.652 4.399 0.652 1.656 0 2.959-0.312 3.91-0.937 0.95-0.652 1.425-1.561 1.425-2.729 0-2.335-1.779-3.503-5.335-3.503h-3.014v-4.358l5.865-6.639h-12.137v-5.295h19.956v4.276l-6.435 7.331z"></path>
</symbol>
<symbol id="icon--04" viewBox="0 0 119 32">
<path fill="#ff6b09" style="fill: var(--color1, #ff6b09)" d="M0 15.651h40.727v3.951h-40.727v-3.951zM72.584 29.58c-2.362 0-4.466-0.584-6.313-1.751s-3.299-2.851-4.358-5.050c-1.032-2.226-1.548-4.874-1.548-7.942s0.516-5.702 1.548-7.901c1.059-2.226 2.512-3.923 4.358-5.091s3.951-1.751 6.313-1.751 4.467 0.584 6.313 1.751c1.846 1.167 3.286 2.865 4.317 5.091 1.059 2.199 1.588 4.833 1.588 7.901s-0.529 5.715-1.588 7.942c-1.032 2.199-2.471 3.883-4.317 5.050s-3.951 1.751-6.313 1.751zM72.584 24c1.738 0 3.095-0.747 4.073-2.24 1.005-1.493 1.507-3.801 1.507-6.924s-0.502-5.43-1.507-6.924c-0.977-1.493-2.335-2.24-4.073-2.24-1.711 0-3.068 0.747-4.073 2.24-0.977 1.493-1.466 3.801-1.466 6.924s0.489 5.43 1.466 6.924c1.005 1.493 2.362 2.24 4.073 2.24zM117.373 23.104h-4.643v5.987h-6.435v-5.987h-15.354v-4.439l13.44-18.083h6.924l-12.463 17.146h7.657v-5.335h6.231v5.335h4.643v5.376z"></path>
</symbol>
<symbol id="icon--05" viewBox="0 0 113 32">
<path fill="#ff6b09" style="fill: var(--color1, #ff6b09)" d="M0 15.651h40.727v3.951h-40.727v-3.951zM72.584 29.58c-2.362 0-4.466-0.584-6.313-1.751s-3.299-2.851-4.358-5.050c-1.032-2.226-1.548-4.874-1.548-7.942s0.516-5.702 1.548-7.901c1.059-2.226 2.512-3.923 4.358-5.091s3.951-1.751 6.313-1.751 4.467 0.584 6.313 1.751c1.846 1.167 3.286 2.865 4.317 5.091 1.059 2.199 1.588 4.833 1.588 7.901s-0.529 5.715-1.588 7.942c-1.032 2.199-2.471 3.883-4.317 5.050s-3.951 1.751-6.313 1.751zM72.584 24c1.738 0 3.095-0.747 4.073-2.24 1.005-1.493 1.507-3.801 1.507-6.924s-0.502-5.43-1.507-6.924c-0.977-1.493-2.335-2.24-4.073-2.24-1.711 0-3.068 0.747-4.073 2.24-0.977 1.493-1.466 3.801-1.466 6.924s0.489 5.43 1.466 6.924c1.005 1.493 2.362 2.24 4.073 2.24zM101.041 11.293c4.018 0 6.978 0.801 8.879 2.403 1.928 1.602 2.892 3.747 2.892 6.435 0 1.738-0.434 3.326-1.303 4.765-0.869 1.412-2.199 2.552-3.991 3.421-1.765 0.842-3.951 1.263-6.557 1.263-2.009 0-3.991-0.258-5.946-0.774-1.928-0.543-3.57-1.303-4.928-2.281l2.607-5.050c1.086 0.815 2.335 1.453 3.747 1.914 1.412 0.434 2.865 0.652 4.358 0.652 1.656 0 2.959-0.326 3.91-0.977s1.425-1.561 1.425-2.729c0-1.222-0.502-2.145-1.507-2.769-0.977-0.625-2.688-0.937-5.132-0.937h-7.29l1.466-16.047h17.391v5.295h-11.892l-0.448 5.417h2.321z"></path>
</symbol>
<symbol id="icon-close" viewBox="0 0 32 32">
<path d="M32 3.223l-3.223-3.223-12.777 12.777-12.777-12.777-3.223 3.223 12.777 12.777-12.777 12.777 3.223 3.223 12.777-12.777 12.777 12.777 3.223-3.223-12.777-12.777 12.777-12.777z"></path>
</symbol>
</defs>
</svg>
